<svg width="36" height="37" viewBox="0 0 36 37" fill="none" xmlns="http://www.w3.org/2000/svg">
<path fill-rule="evenodd" clip-rule="evenodd" d="M4 12.0821V9.45056H32V12.0821H4ZM32 17.819V20.4506H13.3333V17.819H32Z" fill="#252727"/>
<path d="M4.50391 31.7022H5.45591V28.0902L7.07291 30.3022H7.18491L8.79491 28.1602V31.7022H9.75391V26.4872H8.84391L7.14991 28.8392L5.41391 26.4872H4.50391V31.7022Z" fill="#252727"/>
<path d="M13.202 31.7022H16.667V30.8622H14.154V29.5042H16.527V28.6642H14.154V27.3272H16.667V26.4872H13.202V31.7022Z" fill="#252727"/>
<path d="M19.815 31.7022H20.767V28.2932L23.245 31.7022H23.994V26.4872H23.042V29.8332L20.557 26.4872H19.815V31.7022Z" fill="#252727"/>
<path d="M29.4625 31.7862C29.8638 31.7862 30.2185 31.7022 30.5265 31.5342C30.8392 31.3662 31.0842 31.1352 31.2615 30.8412C31.4389 30.5472 31.5275 30.2135 31.5275 29.8402V26.4872H30.5755V29.7912C30.5755 30.0105 30.5265 30.2065 30.4285 30.3792C30.3352 30.5472 30.2045 30.6802 30.0365 30.7782C29.8732 30.8715 29.6819 30.9182 29.4625 30.9182C29.2479 30.9182 29.0565 30.8715 28.8885 30.7782C28.7205 30.6802 28.5875 30.5472 28.4895 30.3792C28.3962 30.2065 28.3495 30.0105 28.3495 29.7912V26.4872H27.3975V29.8402C27.3975 30.2135 27.4862 30.5472 27.6635 30.8412C27.8408 31.1352 28.0835 31.3662 28.3915 31.5342C28.7042 31.7022 29.0612 31.7862 29.4625 31.7862Z" fill="#252727"/>
</svg>
