<svg width="64" height="41" viewBox="0 0 64 41" fill="none" xmlns="http://www.w3.org/2000/svg">
<path d="M31.5 6.05153V9.38905V11.0135V32.5064C31.5 34.3495 33.046 35.8438 34.9531 35.8438C35.7587 35.8438 36.4983 35.5748 37.0858 35.1275C37.6733 35.5748 38.4127 35.8438 39.2186 35.8438C41.1257 35.8438 42.6717 34.3495 42.6717 32.5064V20.4238V19.909V11.0135V9.38905V6.05153H40.0311V11.0135L40.0313 12.6297V19.909V22.4612V24.0055V29.2658L40.0311 32.4985C40.0311 32.9321 39.6672 33.2838 39.2186 33.2838C38.7702 33.2838 38.4068 32.9328 38.4063 32.4996V24.0055V22.4612V19.909V9.39568V6.14823C38.4061 6.14823 38.4061 6.14823 38.4061 6.14845V6.05153H35.7656V11.0135V12.6297V19.909V22.4612V24.0055V29.2658V32.4985C35.7656 32.9321 35.4017 33.2838 34.9531 33.2838C34.5047 33.2838 34.1412 32.9328 34.1406 32.4996V24.0055V22.4612V19.909V9.39568V6.14823C34.1406 6.14823 34.1403 6.14823 34.1403 6.14845V6.05153H31.5Z" fill="#244B55"/>
<path d="M48.5546 19.4341V21.9863V29.2658V30.8819V35.8438H51.1949V32.5064V30.8819V21.9863V21.4714V9.38905C51.1949 7.54576 49.649 6.05153 47.7421 6.05153H46.9296H45.1016H44.2891V9.38905V30.8819V32.5064V35.8438H46.9294L46.9296 35.747V32.4996V21.9863V19.4341V19.4264V9.38706V8.60374H47.7421C48.1907 8.60374 48.5544 8.95544 48.5544 9.38905V9.3959C48.5544 9.39611 48.5546 9.39656 48.5546 9.39678V12.6219V12.6297V17.8899V19.4341Z" fill="#244B55"/>
<path d="M15.498 9.39567C15.4987 8.9625 15.8621 8.61146 16.3103 8.61146C16.7591 8.61146 17.1227 8.96295 17.1227 9.39678V12.6294L17.123 19.4339H15.498V9.39567ZM18.756 21.9861H19.7633V9.38883C19.7633 7.54554 18.2173 6.05153 16.3103 6.05153C14.4034 6.05153 12.8574 7.54554 12.8574 9.38883V32.5062C12.8574 34.3495 14.4034 35.8438 16.3103 35.8438C18.2173 35.8438 19.7633 34.3495 19.7633 32.5062V23.5501H17.123V29.2656L17.1227 32.4985C17.1227 32.9321 16.7591 33.2838 16.3103 33.2838C15.8621 33.2838 15.4987 32.9328 15.498 32.4994V21.9861H18.756Z" fill="#244B55"/>
<path d="M24.0153 22.4612V19.909V12.6294V11.0133V6.05153H21.375V9.38883V11.0133V19.909V20.4238V32.5062C21.375 34.3495 22.921 35.8438 24.8278 35.8438H25.6403V33.2915H24.8278C24.3792 33.2915 24.0156 32.9398 24.0156 32.5062V32.4994L24.0153 32.4985V29.2733V29.2656V24.0053V22.4612Z" fill="#244B55"/>
<path d="M63.5993 0.948193H61.3594H6.91913H5.92618H2.64078H0V3.50041V17.483L0.000223069 17.4912H4.28337H6.90611H6.92393V9.39699C6.92461 8.9636 7.28803 8.61256 7.7362 8.61256C8.18505 8.61256 8.5487 8.96426 8.5487 9.39787V12.6308L8.54892 17.4912L4.28337 22.697V23.3163V26.7017V32.5062C4.28337 34.3495 5.82933 35.8438 7.7362 35.8438C9.64329 35.8438 11.1893 34.3495 11.1893 32.5062V23.5501H8.54892V29.2656L8.5487 32.4985C8.5487 32.9321 8.18505 33.2838 7.7362 33.2838C7.28803 33.2838 6.92461 32.9328 6.92393 32.4996V23.5501L11.1893 18.3447V17.4912V15.7599V9.39015C11.1893 7.81466 10.0586 6.49771 8.53979 6.14712V6.36215C8.53979 6.79576 8.17591 7.14725 7.72729 7.14725C7.27867 7.14725 6.91479 6.79576 6.91479 6.36215V6.15175C5.40515 6.50853 4.28337 7.82107 4.28337 9.39015V14.939H2.64078V3.50041H5.92618H6.91913H61.3594V21.9874H64V0.948193H63.5993Z" fill="#244B55"/>
<path d="M55.4689 9.39684C55.4696 8.96367 55.8331 8.61263 56.2814 8.61263C56.7301 8.61263 57.0937 8.96411 57.0937 9.39794V12.6306L57.0939 19.435H55.4689V9.39684ZM61.3593 23.5501H57.0939V23.5512V26.1024V29.2668L57.0937 32.4997C57.0937 32.9333 56.7301 33.285 56.2814 33.285C55.8331 33.285 55.4696 32.9339 55.4689 32.5006V21.9872H58.7269H59.7343V9.38999C59.7343 7.5467 58.1883 6.05268 56.2814 6.05268C54.3744 6.05268 52.8284 7.5467 52.8284 9.38999V32.5074C52.8284 34.3507 54.3744 35.8449 56.2814 35.8449C58.1883 35.8449 59.7343 34.3507 59.7343 32.5074V26.1024H61.3593V38.396H2.64057V19.054H0V40.9482H63.9998V23.5501H61.3593Z" fill="#244B55"/>
<path d="M29.8769 35.747V32.4996V29.3965V21.9863V19.4341V19.4264V9.38706V8.60374V7.95862V6.05153H28.0486H27.2363V7.95862V9.38905V29.3965V30.8819V32.5064V35.8438H29.8767H29.8769V35.747Z" fill="#244B55"/>
</svg>
