<svg width="69" height="45" viewBox="0 0 69 45" fill="none" xmlns="http://www.w3.org/2000/svg">
<path d="M33.4885 6.56939V10.2404V12.0272V35.6678C33.4885 37.695 35.1321 39.3386 37.1595 39.3386C38.016 39.3386 38.8024 39.0428 39.4269 38.5508C40.0515 39.0428 40.8376 39.3386 41.6943 39.3386C43.7218 39.3386 45.3654 37.695 45.3654 35.6678V22.3778V21.8115V12.0272V10.2404V6.56939H42.5581V12.0272L42.5584 13.8048V21.8115V24.6188V26.3174V32.1034L42.5581 35.659C42.5581 36.136 42.1713 36.5228 41.6943 36.5228C41.2177 36.5228 40.8313 36.1367 40.8308 35.6603V26.3174V24.6188V21.8115V10.2477V6.67576C40.8306 6.67576 40.8306 6.67576 40.8306 6.676V6.56939H38.0233V12.0272V13.8048V21.8115V24.6188V26.3174V32.1034V35.659C38.0233 36.136 37.6365 36.5228 37.1595 36.5228C36.6828 36.5228 36.2965 36.1367 36.2958 35.6603V26.3174V24.6188V21.8115V10.2477V6.67576C36.2958 6.67576 36.2955 6.67576 36.2955 6.676V6.56939H33.4885Z" fill="#244B55"/>
<path d="M51.619 21.2892V24.0964V32.1034V33.881V39.3386H54.426V35.6678V33.881V24.0964V23.5301V10.2404C54.426 8.21294 52.7825 6.56939 50.7553 6.56939H49.8915H47.948H47.0842V10.2404V33.881V35.6678V39.3386H49.8912L49.8915 39.2322V35.6603V24.0964V21.2892V21.2807V10.2382V9.37663H50.7553C51.2322 9.37663 51.6188 9.76348 51.6188 10.2404V10.2479C51.6188 10.2482 51.619 10.2487 51.619 10.2489V13.7963V13.8048V19.5908V21.2892Z" fill="#244B55"/>
<path d="M16.4769 10.2477C16.4776 9.77125 16.864 9.38513 17.3405 9.38513C17.8176 9.38513 18.2042 9.77173 18.2042 10.2489V13.8046L18.2045 21.2889H16.4769V10.2477ZM19.9406 24.0962H21.0115V10.2402C21.0115 8.2127 19.3679 6.56939 17.3405 6.56939C15.3132 6.56939 13.6697 8.2127 13.6697 10.2402V35.6675C13.6697 37.695 15.3132 39.3386 17.3405 39.3386C19.3679 39.3386 21.0115 37.695 21.0115 35.6675V25.8165H18.2045V32.1031L18.2042 35.659C18.2042 36.136 17.8176 36.5228 17.3405 36.5228C16.864 36.5228 16.4776 36.1367 16.4769 35.66V24.0962H19.9406Z" fill="#244B55"/>
<path d="M25.5309 24.6188V21.8115V13.8046V12.027V6.56939H22.7239V10.2402V12.027V21.8115V22.3778V35.6675C22.7239 37.695 24.3674 39.3386 26.3947 39.3386H27.2584V36.5313H26.3947C25.9177 36.5313 25.5311 36.1445 25.5311 35.6675V35.66L25.5309 35.659V32.1116V32.1031V26.3172V24.6188Z" fill="#244B55"/>
<path d="M67.6139 0.95612H65.2326H7.35589H6.30026H2.80748H0V3.76336V19.1432L0.000237149 19.1522H4.55375H7.34204H7.36098V10.2492C7.36171 9.77246 7.74807 9.38634 8.22453 9.38634C8.70171 9.38634 9.08831 9.77318 9.08831 10.2501V13.806L9.08855 19.1522L4.55375 24.8781V25.5593V29.283V35.6675C4.55375 37.695 6.19729 39.3386 8.22453 39.3386C10.252 39.3386 11.8955 37.695 11.8955 35.6675V25.8165H9.08855V32.1031L9.08831 35.659C9.08831 36.136 8.70171 36.5228 8.22453 36.5228C7.74807 36.5228 7.36171 36.1367 7.36098 35.6603V25.8165L11.8955 20.091V19.1522V17.2478V10.2416C11.8955 8.50871 10.6935 7.06017 9.07884 6.67453V6.91106C9.07884 7.388 8.69199 7.7746 8.21505 7.7746C7.73812 7.7746 7.35127 7.388 7.35127 6.91106V6.67963C5.74634 7.07206 4.55375 8.51575 4.55375 10.2416V16.3449H2.80748V3.76336H6.30026H7.35589H65.2326V24.0976H68.0398V0.95612H67.6139Z" fill="#244B55"/>
<path d="M58.9703 10.2489C58.971 9.77248 59.3574 9.38636 59.8341 9.38636C60.311 9.38636 60.6976 9.77296 60.6976 10.2501V13.8058L60.6979 21.2902H58.9703V10.2489ZM65.2324 25.8165H60.6979V25.8177V28.6237V32.1044L60.6976 35.6603C60.6976 36.1372 60.311 36.5241 59.8341 36.5241C59.3574 36.5241 58.971 36.1379 58.9703 35.6612V24.0974H62.4339H63.5048V10.2414C63.5048 8.21392 61.8613 6.57062 59.8341 6.57062C57.8066 6.57062 56.163 8.21392 56.163 10.2414V35.6688C56.163 37.6963 57.8066 39.3398 59.8341 39.3398C61.8613 39.3398 63.5048 37.6963 63.5048 35.6688V28.6237H65.2324V42.1458H2.80724V20.871H0V44.9531H68.0397V25.8165H65.2324Z" fill="#244B55"/>
<path d="M31.7623 39.2322V35.6603V32.2471V24.0964V21.2892V21.2807V10.2382V9.37663V8.66705V6.56939H29.8186H28.9551V8.66705V10.2404V32.2471V33.881V35.6678V39.3386H31.7621H31.7623V39.2322Z" fill="#244B55"/>
</svg>
