<svg width="64" height="41" viewBox="0 0 64 41" fill="none" xmlns="http://www.w3.org/2000/svg">
<path d="M31.5 6.05793V9.39546V11.02V32.5129C31.5 34.3559 33.046 35.8502 34.9531 35.8502C35.7587 35.8502 36.4983 35.5813 37.0858 35.134C37.6733 35.5813 38.4127 35.8502 39.2186 35.8502C41.1257 35.8502 42.6717 34.3559 42.6717 32.5129V20.4302V19.9154V11.02V9.39546V6.05793H40.0311V11.02L40.0313 12.6361V19.9154V22.4676V24.012V29.2723L40.0311 32.5049C40.0311 32.9385 39.6672 33.2902 39.2186 33.2902C38.7702 33.2902 38.4068 32.9392 38.4063 32.506V24.012V22.4676V19.9154V9.40208V6.15464C38.4061 6.15464 38.4061 6.15463 38.4061 6.15486V6.05793H35.7656V11.02V12.6361V19.9154V22.4676V24.012V29.2723V32.5049C35.7656 32.9385 35.4017 33.2902 34.9531 33.2902C34.5047 33.2902 34.1412 32.9392 34.1406 32.506V24.012V22.4676V19.9154V9.40208V6.15464C34.1406 6.15464 34.1403 6.15463 34.1403 6.15486V6.05793H31.5Z" fill="#FAFAFA"/>
<path d="M48.5546 19.4405V21.9927V29.2723V30.8884V35.8502H51.1949V32.5129V30.8884V21.9927V21.4778V9.39546C51.1949 7.55217 49.649 6.05793 47.7421 6.05793H46.9296H45.1016H44.2891V9.39546V30.8884V32.5129V35.8502H46.9294L46.9296 35.7535V32.506V21.9927V19.4405V19.4328V9.39347V8.61015H47.7421C48.1907 8.61015 48.5544 8.96185 48.5544 9.39546V9.4023C48.5544 9.40252 48.5546 9.40296 48.5546 9.40319V12.6283V12.6361V17.8964V19.4405Z" fill="#FAFAFA"/>
<path d="M15.499 9.40208C15.4996 8.96891 15.8631 8.61787 16.3112 8.61787C16.7601 8.61787 17.1237 8.96935 17.1237 9.40319V12.6358L17.124 19.4403H15.499V9.40208ZM18.7569 21.9925H19.7643V9.39524C19.7643 7.55195 18.2183 6.05793 16.3112 6.05793C14.4044 6.05793 12.8584 7.55195 12.8584 9.39524V32.5126C12.8584 34.3559 14.4044 35.8502 16.3112 35.8502C18.2183 35.8502 19.7643 34.3559 19.7643 32.5126V23.5565H17.124V29.272L17.1237 32.5049C17.1237 32.9385 16.7601 33.2902 16.3112 33.2902C15.8631 33.2902 15.4996 32.9392 15.499 32.5058V21.9925H18.7569Z" fill="#FAFAFA"/>
<path d="M24.0153 22.4676V19.9154V12.6358V11.0197V6.05793H21.375V9.39524V11.0197V19.9154V20.4302V32.5126C21.375 34.3559 22.921 35.8502 24.8278 35.8502H25.6403V33.2979H24.8278C24.3792 33.2979 24.0156 32.9462 24.0156 32.5126V32.5058L24.0153 32.5049V29.2798V29.272V24.0117V22.4676Z" fill="#FAFAFA"/>
<path d="M63.5993 0.954602H61.3594H6.91913H5.92618H2.64078H0V3.50681V17.4895L0.000223069 17.4976H4.28337H6.90611H6.92393V9.4034C6.92461 8.97001 7.28803 8.61897 7.7362 8.61897C8.18505 8.61897 8.5487 8.97067 8.5487 9.40428V12.6372L8.54892 17.4976L4.28337 22.7034V23.3227V26.7081V32.5126C4.28337 34.3559 5.82933 35.8502 7.7362 35.8502C9.64329 35.8502 11.1893 34.3559 11.1893 32.5126V23.5565H8.54892V29.272L8.5487 32.5049C8.5487 32.9385 8.18505 33.2902 7.7362 33.2902C7.28803 33.2902 6.92461 32.9392 6.92393 32.506V23.5565L11.1893 18.3512V17.4976V15.7663V9.39656C11.1893 7.82107 10.0586 6.50412 8.53979 6.15352V6.36856C8.53979 6.80217 8.17591 7.15366 7.72729 7.15366C7.27867 7.15366 6.91479 6.80217 6.91479 6.36856V6.15816C5.40515 6.51494 4.28337 7.82747 4.28337 9.39656V14.9454H2.64078V3.50681H5.92618H6.91913H61.3594V21.9938H64V0.954602H63.5993Z" fill="#FAFAFA"/>
<path d="M55.4689 9.40318C55.4696 8.97001 55.8331 8.61897 56.2814 8.61897C56.7301 8.61897 57.0937 8.97046 57.0937 9.40429V12.6369L57.0939 19.4414H55.4689V9.40318ZM61.3593 23.5565H57.0939V23.5576V26.1087V29.2731L57.0937 32.506C57.0937 32.9396 56.7301 33.2913 56.2814 33.2913C55.8331 33.2913 55.4696 32.9403 55.4689 32.5069V21.9936H58.7269H59.7343V9.39634C59.7343 7.55305 58.1883 6.05903 56.2814 6.05903C54.3743 6.05903 52.8284 7.55305 52.8284 9.39634V32.5137C52.8284 34.357 54.3743 35.8513 56.2814 35.8513C58.1883 35.8513 59.7343 34.357 59.7343 32.5137V26.1087H61.3593V38.4024H2.64057V19.0603H0V40.9546H63.9998V23.5565H61.3593Z" fill="#FAFAFA"/>
<path d="M29.8769 35.7535V32.506V29.403V21.9927V19.4405V19.4328V9.39347V8.61015V7.96503V6.05793H28.0486H27.2363V7.96503V9.39546V29.403V30.8884V32.5129V35.8502H29.8767H29.8769V35.7535Z" fill="#FAFAFA"/>
</svg>
