<svg width="390" height="93" viewBox="0 0 390 93" fill="none" xmlns="http://www.w3.org/2000/svg">
<path d="M49.4883 30.5679V34.2389V36.0257V59.6663C49.4883 61.6935 51.1318 63.337 53.1593 63.337C54.0158 63.337 54.8021 63.0413 55.4267 62.5493C56.0513 63.0413 56.8374 63.337 57.6941 63.337C59.7216 63.337 61.3651 61.6935 61.3651 59.6663V46.3763V45.81V36.0257V34.2389V30.5679H58.5579V36.0257L58.5581 37.8033V45.81V48.6172V50.3159V56.1018L58.5579 59.6575C58.5579 60.1345 58.171 60.5213 57.6941 60.5213C57.2174 60.5213 56.831 60.1352 56.8306 59.6587V50.3159V48.6172V45.81V34.2462V30.6742C56.8303 30.6742 56.8303 30.6742 56.8303 30.6745V30.5679H54.0231V36.0257V37.8033V45.81V48.6172V50.3159V56.1018V59.6575C54.0231 60.1345 53.6362 60.5213 53.1593 60.5213C52.6826 60.5213 52.2962 60.1352 52.2955 59.6587V50.3159V48.6172V45.81V34.2462V30.6742C52.2955 30.6742 52.2953 30.6742 52.2953 30.6745V30.5679H49.4883Z" fill="#244B55"/>
<path d="M67.6193 45.2877V48.0949V56.1018V57.8794V63.337H70.4263V59.6663V57.8794V48.0949V47.5286V34.2389C70.4263 32.2114 68.7827 30.5679 66.7555 30.5679H65.8917H63.9483H63.0845V34.2389V57.8794V59.6663V63.337H65.8915L65.8917 63.2307V59.6587V48.0949V45.2877V45.2792V34.2367V33.3751H66.7555C67.2324 33.3751 67.619 33.762 67.619 34.2389V34.2464C67.619 34.2467 67.6193 34.2471 67.6193 34.2474V37.7948V37.8033V43.5892V45.2877Z" fill="#244B55"/>
<path d="M32.4767 34.2462C32.4774 33.7697 32.8638 33.3836 33.3402 33.3836C33.8174 33.3836 34.204 33.7702 34.204 34.2474V37.8031L34.2042 45.2874H32.4767V34.2462ZM35.9403 48.0947H37.0112V34.2386C37.0112 32.2112 35.3677 30.5679 33.3402 30.5679C31.313 30.5679 29.6694 32.2112 29.6694 34.2386V59.666C29.6694 61.6935 31.313 63.337 33.3402 63.337C35.3677 63.337 37.0112 61.6935 37.0112 59.666V49.8149H34.2042V56.1016L34.204 59.6575C34.204 60.1345 33.8174 60.5213 33.3402 60.5213C32.8638 60.5213 32.4774 60.1352 32.4767 59.6585V48.0947H35.9403Z" fill="#244B55"/>
<path d="M41.5311 48.6172V45.81V37.8031V36.0255V30.5679H38.7241V34.2386V36.0255V45.81V46.3763V59.666C38.7241 61.6935 40.3677 63.337 42.3949 63.337H43.2587V60.5298H42.3949C41.918 60.5298 41.5314 60.143 41.5314 59.666V59.6585L41.5311 59.6575V56.1101V56.1016V50.3157V48.6172Z" fill="#244B55"/>
<path d="M83.6139 24.9546H81.2326H23.3559H22.3003H18.8075H16V27.7618V43.1417L16.0002 43.1507H20.5537H23.342H23.361V34.2476C23.3617 33.7709 23.7481 33.3848 24.2245 33.3848C24.7017 33.3848 25.0883 33.7717 25.0883 34.2486V37.8045L25.0886 43.1507L20.5537 48.8766V49.5578V53.2815V59.666C20.5537 61.6935 22.1973 63.337 24.2245 63.337C26.252 63.337 27.8955 61.6935 27.8955 59.666V49.8149H25.0886V56.1016L25.0883 59.6575C25.0883 60.1345 24.7017 60.5213 24.2245 60.5213C23.7481 60.5213 23.3617 60.1352 23.361 59.6587V49.8149L27.8955 44.0895V43.1507V41.2463V34.2401C27.8955 32.5072 26.6935 31.0586 25.0788 30.673V30.9095C25.0788 31.3865 24.692 31.7731 24.2151 31.7731C23.7381 31.7731 23.3513 31.3865 23.3513 30.9095V30.6781C21.7463 31.0705 20.5537 32.5142 20.5537 34.2401V40.3434H18.8075V27.7618H22.3003H23.3559H81.2326V48.0961H84.0398V24.9546H83.6139Z" fill="#244B55"/>
<path d="M74.9703 34.2474C74.971 33.771 75.3574 33.3848 75.8341 33.3848C76.311 33.3848 76.6976 33.7714 76.6976 34.2486V37.8043L76.6979 45.2886H74.9703V34.2474ZM81.2324 49.815H76.6979V49.8162V52.6222V56.1028L76.6976 59.6588C76.6976 60.1357 76.311 60.5225 75.8341 60.5225C75.3574 60.5225 74.971 60.1364 74.9703 59.6597V48.0959H78.4339H79.5048V34.2399C79.5048 32.2124 77.8613 30.5691 75.8341 30.5691C73.8066 30.5691 72.163 32.2124 72.163 34.2399V59.6673C72.163 61.6947 73.8066 63.3383 75.8341 63.3383C77.8613 63.3383 79.5048 61.6947 79.5048 59.6673V52.6222H81.2324V66.1443H18.8072V44.8695H16V68.9515H84.0397V49.815H81.2324Z" fill="#244B55"/>
<path d="M47.7623 63.2307V59.6587V56.2456V48.0949V45.2877V45.2792V34.2367V33.3751V32.6655V30.5679H45.8186H44.9551V32.6655V34.2389V56.2456V57.8794V59.6663V63.337H47.7621H47.7623V63.2307Z" fill="#244B55"/>
<path fill-rule="evenodd" clip-rule="evenodd" d="M342 40.0821V37.4506H370V40.0821H342ZM370 45.819V48.4506H351.333V45.819H370Z" fill="#252727"/>
<path d="M342.504 59.7022H343.456V56.0902L345.073 58.3022H345.185L346.795 56.1602V59.7022H347.754V54.4872H346.844L345.15 56.8392L343.414 54.4872H342.504V59.7022Z" fill="#252727"/>
<path d="M351.202 59.7022H354.667V58.8622H352.154V57.5042H354.527V56.6642H352.154V55.3272H354.667V54.4872H351.202V59.7022Z" fill="#252727"/>
<path d="M357.815 59.7022H358.767V56.2932L361.245 59.7022H361.994V54.4872H361.042V57.8332L358.557 54.4872H357.815V59.7022Z" fill="#252727"/>
<path d="M367.463 59.7862C367.864 59.7862 368.219 59.7022 368.527 59.5342C368.839 59.3662 369.084 59.1352 369.262 58.8412C369.439 58.5472 369.528 58.2135 369.528 57.8402V54.4872H368.576V57.7912C368.576 58.0105 368.527 58.2065 368.429 58.3792C368.335 58.5472 368.205 58.6802 368.037 58.7782C367.873 58.8715 367.682 58.9182 367.463 58.9182C367.248 58.9182 367.057 58.8715 366.889 58.7782C366.721 58.6802 366.588 58.5472 366.49 58.3792C366.396 58.2065 366.35 58.0105 366.35 57.7912V54.4872H365.398V57.8402C365.398 58.2135 365.486 58.5472 365.664 58.8412C365.841 59.1352 366.084 59.3662 366.392 59.5342C366.704 59.7022 367.061 59.7862 367.463 59.7862Z" fill="#252727"/>
</svg>
